<?xml version="1.0" standalone="no"?>
<!DOCTYPE svg PUBLIC "-//W3C//DTD SVG 20010904//EN"
 "http://www.w3.org/TR/2001/REC-SVG-20010904/DTD/svg10.dtd">
<svg version="1.0" xmlns="http://www.w3.org/2000/svg"
 width="2048.000000pt" height="2048.000000pt" viewBox="0 0 2048.000000 2048.000000"
 preserveAspectRatio="xMidYMid meet">

<g transform="translate(0.000000,2048.000000) scale(0.100000,-0.100000)"
fill="#000000" stroke="none">
<path d="M4397 18303 c-4 -71 -7 -597 -7 -1170 l0 -1043 -1042 0 c-574 0
-1100 -3 -1170 -7 l-128 -6 0 -524 0 -523 1170 0 1170 0 2 -3847 3 -3848 525
0 525 0 5 3845 5 3845 3845 5 3845 5 0 525 0 525 -3847 3 -3848 2 0 1170 0
1170 -523 0 -524 0 -6 -127z"/>
<path d="M13775 14463 c-1544 -1556 -3127 -3150 -3519 -3543 -858 -863 -3032
-3052 -4980 -5015 -787 -792 -1567 -1578 -1735 -1748 l-306 -307 331 -331 331
-331 2808 2829 c1545 1555 3732 3757 4860 4893 4503 4533 5675 5715 5673 5722
-3 7 -649 658 -654 658 -1 0 -1265 -1272 -2809 -2827z"/>
<path d="M15035 13138 c-3 -7 -6 -1739 -8 -3848 l-2 -3835 -3845 -5 -3845 -5
0 -525 0 -525 3848 -3 3847 -2 0 -1170 0 -1170 523 0 524 0 6 127 c4 71 7 597
7 1171 l0 1042 1043 0 c573 0 1099 3 1170 7 l127 6 0 524 0 523 -1170 0 -1170
0 -2 3848 -3 3847 -523 3 c-413 2 -524 0 -527 -10z"/>
<path d="M10050 12614 c-219 -16 -452 -38 -607 -59 -1520 -206 -2790 -856
-3353 -1715 -138 -211 -250 -479 -250 -600 0 -121 112 -389 250 -600 270 -412
732 -802 1282 -1085 l117 -60 86 85 c47 46 85 87 85 90 0 3 -48 29 -107 59
-552 272 -996 635 -1260 1029 -73 109 -161 285 -198 395 l-30 87 30 88 c85
251 261 518 500 757 500 500 1316 908 2235 1118 247 57 236 57 145 -3 -142
-93 -238 -171 -356 -289 -180 -181 -297 -345 -409 -576 -102 -209 -160 -396
-197 -635 -14 -94 -18 -179 -18 -460 0 -373 9 -466 61 -675 42 -168 116 -370
134 -363 4 2 608 599 1342 1328 733 729 1474 1464 1646 1635 253 250 309 311
294 316 -64 24 -528 90 -797 114 -173 15 -525 26 -625 19z"/>
<path d="M12887 11902 l-87 -87 117 -58 c564 -279 1004 -638 1270 -1035 73
-109 161 -285 198 -394 l30 -88 -30 -87 c-85 -252 -261 -519 -500 -758 -500
-500 -1316 -908 -2235 -1118 -247 -57 -236 -57 -145 3 142 93 238 171 356 289
180 181 297 345 409 576 102 209 160 396 197 635 26 167 26 753 0 920 -30 192
-88 399 -153 546 l-26 59 -216 -220 c-119 -121 -855 -862 -1635 -1647 -780
-785 -1418 -1430 -1418 -1435 0 -11 192 -46 421 -77 589 -80 1008 -80 1597 -1
1520 206 2790 856 3353 1715 135 206 263 509 241 571 -7 20 -7 38 0 58 22 62
-106 365 -241 571 -226 344 -584 673 -1021 939 -102 62 -378 211 -390 211 -2
0 -44 -39 -92 -88z"/>
</g>
</svg>
